<?xml version="1.0" encoding="UTF-8"?>
<!-- Created with Inkscape (http://www.inkscape.org/) -->
<svg width="3250" height="512" version="1.1" viewBox="0 0 3250 512" xmlns="http://www.w3.org/2000/svg">
 <g opacity=".88">
  <path d="m195 207.6-109-1e-5 1e-5 240.4 236 2e-5 -9.9e-4 -113.3h-127z" fill="#8f1742" stroke-miterlimit="10.9" stroke-width="65.08"/>
 </g>
 <g opacity=".88" style="mix-blend-mode:normal">
  <path d="m316 121.5a116.2 116.2 0 0 0-164.3-3e-5 116.2 116.2 0 0 0 1e-5 164.3 116.2 116.2 0 0 0 164.3-2e-5 116.2 116.2 0 0 0 0-164.3z" fill="#7d70ba" stroke="#7d70ba" stroke-linejoin="round" stroke-miterlimit="10.9" stroke-width="63.66"/>
 </g>
 <g style="mix-blend-mode:soft-light">
  <path d="m412.5 218a116.2 116.2 0 0 0-164.3-2e-5 116.2 116.2 0 0 0 0 164.3 116.2 116.2 0 0 0 164.3-1e-5 116.2 116.2 0 0 0-2e-5 -164.3z" fill="#dec1ff" opacity=".88" stroke="#dec1ff" stroke-linejoin="round" stroke-miterlimit="10.9" stroke-width="63.66" style="mix-blend-mode:normal"/>
  <g aria-label="hkcfu.review">
   <path d="m609.5 423.3q-9.333 0-14-5.133t-4.667-14.47v-296.8q0-9.333 4.667-14 4.667-5.133 14-5.133 8.867 0 14 5.133 5.133 4.667 5.133 14v136.7h-6.067q9.8-27.07 31.73-40.6 22.4-14 51.33-14 27.07 0 44.8 9.8 18.2 9.8 27.07 29.87 8.867 19.6 8.867 49.93v125.1q0 9.333-5.133 14.47-4.667 5.133-13.53 5.133-9.333 0-14.47-5.133-4.667-5.133-4.667-14.47v-122.7q0-31.73-12.6-46.2-12.13-14.93-39.2-14.93-31.27 0-49.93 19.6-18.2 19.13-18.2 51.33v112.9q0 19.6-19.13 19.6z"/>
   <path d="m874.6 423.3q-9.333 0-14-5.133t-4.667-14.47v-296.8q0-9.333 4.667-14 4.667-5.133 14-5.133 8.867 0 14 5.133 5.133 4.667 5.133 14v187.1h0.9333l95.67-91.47q6.533-6.067 11.2-9.333 5.133-3.267 13.53-3.267 7.467 0 11.67 4.2 4.2 3.733 3.733 9.8 0 5.6-5.6 12.13l-101.7 96.6v-20.53l110.6 104.1q6.533 6.533 6.533 12.6t-4.667 10.27q-4.2 4.2-11.2 4.2-8.4 0-13.53-3.267-5.133-3.733-12.6-10.73l-103.6-95.67h-0.9333v90.07q0 19.6-19.13 19.6z"/>
   <path d="m1179 424.2q-34.07 0-58.8-14.93-24.73-14.93-38.27-41.53-13.07-27.07-13.07-62.53 0-27.07 7.467-48.53 7.467-21.47 21.93-36.4 14.47-15.4 34.53-23.33 20.53-7.933 46.2-7.933 16.8 0 35 5.133 18.2 5.133 33.13 17.73 4.667 3.267 6.067 7.933t0 9.333q-1.4 4.2-4.667 7.467-3.267 2.8-8.4 3.267-4.667 0.4667-9.8-3.267-12.13-9.333-24.73-13.07-12.6-3.733-24.27-3.733-18.2 0-31.73 6.067-13.53 5.6-22.87 16.33t-14.47 26.6q-4.667 15.87-4.667 36.87 0 40.6 19.13 64.4 19.13 23.33 54.6 23.33 11.67 0 23.8-3.733 12.6-3.733 25.2-13.07 5.133-3.733 9.8-3.267t7.933 3.733q3.267 2.8 4.2 7.467 1.4 4.667 0 9.333-1.4 4.2-6.067 7.467-14.93 12.13-32.67 17.73-17.73 5.133-34.53 5.133z"/>
   <path d="m1330 423.3q-8.867 0-14-5.133-4.667-5.133-4.667-14.47v-181.1h-29.87q-7.467 0-12.13-3.733-4.2-4.2-4.2-11.2 0-7 4.2-10.73 4.667-3.733 12.13-3.733h40.13l-10.27 9.8v-17.73q0-44.33 21.47-67.67 21.93-23.33 63.93-27.07l13.53-1.4q6.533-0.4667 10.27 2.333 4.2 2.8 5.133 7 1.4 4.2 0.4667 8.867-0.9333 4.2-4.2 7.467-3.267 3.267-7.933 3.733l-10.73 0.9333q-28.47 2.333-41.53 17.27-12.6 14.93-12.6 43.87v19.6l-5.6-7h56q7.933 0 12.13 3.733 4.2 3.733 4.2 10.73 0 7-4.2 11.2-4.2 3.733-12.13 3.733h-50.4v181.1q0 19.6-19.13 19.6z"/>
   <path d="m1535 424.2q-27.53 0-45.73-9.8-17.73-10.27-27.07-30.33-8.867-20.07-8.867-49.93v-125.1q0-9.8 4.667-14.47 5.133-4.667 14-4.667 9.333 0 14 4.667 5.133 4.667 5.133 14.47v124.6q0 29.87 12.13 44.8 12.6 14.47 39.2 14.47 28.93 0 47.13-19.6 18.2-19.6 18.2-51.33v-112.9q0-9.8 4.667-14.47 5.133-4.667 14.47-4.667 8.867 0 13.53 4.667 5.133 4.667 5.133 14.47v194.6q0 19.6-18.2 19.6-8.867 0-14-5.133-4.667-5.133-4.667-14.47v-42.47l6.067 6.533q-9.333 27.53-30.8 42-21 14.47-49 14.47z"/>
   <path d="m1735 421.9q-11.67 0-18.67-7-7-7.467-7-18.67t7-18.2q7-7.467 18.67-7.467t18.2 7.467q7 7 7 18.2t-7 18.67q-6.533 7-18.2 7z"/>
   <path d="m1842 423.3q-9.333 0-14.47-5.133-4.667-5.133-4.667-14.47v-194.6q0-9.333 4.667-14 4.667-5.133 13.53-5.133t13.53 5.133q5.133 4.667 5.133 14v37.8h-4.667q7.467-27.53 28.47-42.47 21-14.93 51.8-15.87 7-0.4667 11.2 3.267 4.2 3.267 4.667 11.67 0.4667 7.933-3.733 12.6t-13.07 5.6l-7.467 0.9333q-31.73 2.8-49 20.53-16.8 17.27-16.8 47.6v112.9q0 9.333-5.133 14.47-4.667 5.133-14 5.133z"/>
   <path d="m2089 424.2q-35.93 0-62.07-14-25.67-14.47-40.13-40.6-14-26.13-14-62.53 0-35.47 14-61.6 14-26.6 38.27-41.53 24.73-14.93 56.93-14.93 22.87 0 41.07 7.933 18.2 7.467 30.8 21.93 13.07 14.47 19.6 35 7 20.53 7 46.2 0 7.467-4.2 11.2-4.2 3.267-12.13 3.267h-162.4v-24.73h153.5l-7.467 6.067q0-25.2-7.467-42.47-7.467-17.73-21.93-27.07-14-9.333-35.47-9.333-23.8 0-40.6 11.2-16.33 10.73-24.73 30.33-8.4 19.13-8.4 44.8v2.8q0 42.93 20.53 65.33 21 22.4 59.27 22.4 15.87 0 31.27-4.2 15.87-4.2 30.8-14 6.533-4.2 11.67-3.733 5.6 0 8.867 3.267 3.267 2.8 4.2 7.467 1.4 4.2-0.9333 9.333-1.867 5.133-7.933 8.867-15.4 11.2-36.4 17.27-21 6.067-41.53 6.067z"/>
   <path d="m2317 423.3q-7.933 0-14-4.2-6.067-4.667-10.27-14l-80.73-188.5q-3.267-7-2.333-13.07t5.6-9.8q4.667-3.733 13.07-3.733 7.467 0 11.67 3.267t7.467 11.67l76.53 187.1h-12.6l77.93-187.1q3.267-8.4 7.467-11.67t12.13-3.267q7.467 0 11.2 3.733 4.2 3.733 4.667 9.8 0.9333 5.6-1.867 12.6l-81.67 189q-3.267 9.333-9.8 14-6.067 4.2-14.47 4.2z"/>
   <path d="m2492 422.4q-9.333 0-14-5.133-4.667-5.6-4.667-15.4v-190.9q0-9.8 4.667-14.93t14-5.133q8.867 0 14 5.133 5.133 5.133 5.133 14.93v190.9q0 9.8-5.133 15.4-4.667 5.133-14 5.133zm0-283.7q-11.67 0-18.2-6.067-6.533-6.533-6.533-17.27 0-11.2 6.533-16.8 6.533-6.067 18.2-6.067 12.13 0 18.2 6.067 6.533 5.6 6.533 16.8 0 10.73-6.533 17.27-6.067 6.067-18.2 6.067z"/>
   <path d="m2683 424.2q-35.93 0-62.07-14-25.67-14.47-40.13-40.6-14-26.13-14-62.53 0-35.47 14-61.6 14-26.6 38.27-41.53 24.73-14.93 56.93-14.93 22.87 0 41.07 7.933 18.2 7.467 30.8 21.93 13.07 14.47 19.6 35 7 20.53 7 46.2 0 7.467-4.2 11.2-4.2 3.267-12.13 3.267h-162.4v-24.73h153.5l-7.467 6.067q0-25.2-7.467-42.47-7.467-17.73-21.93-27.07-14-9.333-35.47-9.333-23.8 0-40.6 11.2-16.33 10.73-24.73 30.33-8.4 19.13-8.4 44.8v2.8q0 42.93 20.53 65.33 21 22.4 59.27 22.4 15.87 0 31.27-4.2 15.87-4.2 30.8-14 6.533-4.2 11.67-3.733 5.6 0 8.867 3.267 3.267 2.8 4.2 7.467 1.4 4.2-0.9333 9.333-1.867 5.133-7.933 8.867-15.4 11.2-36.4 17.27t-41.53 6.067z"/>
   <path d="m2905 423.3q-7.933 0-14-4.2-6.067-4.2-9.8-13.53l-69.53-189q-2.8-7.933-1.867-14 1.4-6.067 6.067-9.333 4.667-3.267 11.67-3.267t11.2 3.267q4.667 3.267 7.467 12.13l65.33 186.7h-11.2l67.2-186.7q3.267-8.4 7.933-11.67 5.133-3.733 13.07-3.733 7.467 0 12.6 3.733 5.133 3.733 7.933 11.67l65.8 186.7h-10.73l66.27-187.6q3.267-8.4 7.933-11.2 4.667-3.267 11.2-3.267 7.467 0 11.2 3.733 4.2 3.733 4.667 9.8t-2.333 13.07l-69.53 189q-3.267 8.867-9.8 13.53-6.067 4.2-14 4.2-7.933 0-14-4.2-6.067-4.667-9.333-13.53l-69.07-189.5h20.07l-68.6 189.5q-3.267 8.867-9.333 13.53-6.067 4.2-14.47 4.2z"/>
  </g>
 </g>
</svg>
